<!-- icon666.com - MILLIONS OF FREE VECTOR ICONS --><svg version="1.1" id="Capa_1" xmlns="http://www.w3.org/2000/svg" xmlns:xlink="http://www.w3.org/1999/xlink" x="0px" y="0px" viewBox="0 0 512 512" style="enable-background:new 0 0 512 512;" xml:space="preserve"><g><g><path d="M502.294,169.645c-10.992-37.59-30.47-70.554-57.891-97.976C398.803,26.067,333.54,0,265.113,0 c-0.543,0-1.094,0.001-1.637,0.005c-34.215,0.208-67.515,6.711-98.974,19.329c-33.022,13.245-62.457,32.652-87.486,57.681 c-25.029,25.028-44.436,54.464-57.681,87.486c-12.619,31.46-19.122,64.76-19.33,98.975c-0.42,69.02,25.701,134.965,71.664,180.927 c27.421,27.422,60.385,46.899,97.975,57.891c22.07,6.452,45.38,9.705,68.943,9.705c14.547,0,29.192-1.241,43.696-3.734 c25.242-4.338,46.662-20.869,57.299-44.219c10.721-23.538,9.103-50.793-4.328-72.911c-20.145-33.171-25.614-59.532-14.631-70.515 c10.982-10.982,37.343-5.513,70.515,14.632c22.117,13.431,49.374,15.049,72.91,4.328c23.351-10.636,39.881-32.057,44.22-57.299 C514.797,244.287,512.732,205.338,502.294,169.645z M478.295,277.131c-2.671,15.542-12.459,28.217-26.854,34.775 c-14.584,6.643-30.81,5.68-44.519-2.646c-60.65-36.832-92.101-25.844-107.805-10.141s-26.691,47.154,10.141,107.805 c8.325,13.708,9.289,29.934,2.646,44.518c-6.557,14.395-19.231,24.182-34.774,26.854c-69.722,11.981-136.77-8.208-183.958-55.396 c-40.253-40.253-63.127-98.293-62.756-159.239c0.382-62.958,24.569-121.606,68.103-165.14 c43.534-43.536,102.182-67.721,165.14-68.104c0.488-0.003,0.971-0.004,1.458-0.004c60.411,0,117.85,22.83,157.781,62.76 C470.085,140.36,490.277,207.411,478.295,277.131z"></path></g></g><g><g><path d="M194.918,327.284c-20.487-20.486-53.823-20.486-74.31,0c-20.486,20.487-20.486,53.823,0,74.31 c10.244,10.243,23.699,15.365,37.154,15.365c13.455,0,26.911-5.122,37.155-15.365 C215.405,381.106,215.405,347.772,194.918,327.284z M173.414,380.09c-8.63,8.63-22.672,8.63-31.301,0 c-8.63-8.63-8.63-22.672,0-31.302c4.314-4.314,9.983-6.472,15.65-6.472c5.668,0,11.337,2.157,15.65,6.472 C182.043,357.418,182.043,371.461,173.414,380.09z"></path></g></g><g><g><path d="M161.849,197.288c-7.018-12.155-18.35-20.849-31.905-24.482c-13.558-3.63-27.717-1.769-39.873,5.25 c-12.155,7.017-20.849,18.349-24.482,31.905c-3.632,13.558-1.769,27.718,5.249,39.873c7.018,12.155,18.349,20.849,31.906,24.482 c4.538,1.215,9.097,1.795,13.587,1.795c23.196,0,44.483-15.504,50.767-38.951C170.73,223.603,168.867,209.442,161.849,197.288z M137.722,229.288c-3.159,11.789-15.315,18.813-27.108,15.65c-5.71-1.529-10.483-5.191-13.439-10.311 c-2.956-5.12-3.741-11.085-2.211-16.794c1.531-5.711,5.193-10.484,10.313-13.44c3.41-1.969,7.194-2.975,11.029-2.975 c1.922,0,3.858,0.252,5.766,0.764c5.71,1.53,10.483,5.192,13.439,10.312C138.467,217.614,139.252,223.579,137.722,229.288z"></path></g></g><g><g><path d="M268.392,103.652c-7.5-27.986-36.37-44.654-64.355-37.156c-27.986,7.5-44.653,36.37-37.154,64.355 c6.282,23.45,27.567,38.952,50.767,38.952c4.488,0,9.051-0.58,13.587-1.795c0,0,0,0,0.001,0 C259.223,160.507,275.89,131.638,268.392,103.652z M223.366,138.629c-11.791,3.158-23.95-3.862-27.108-15.651 c-3.159-11.788,3.862-23.948,15.65-27.107c1.912-0.513,3.832-0.757,5.724-0.757c9.771,0,18.738,6.531,21.385,16.408 C242.174,123.311,235.153,135.471,223.366,138.629z"></path></g></g><g><g><path d="M397.505,114.665c-9.923-9.925-23.118-15.391-37.154-15.391s-27.231,5.467-37.155,15.391 c-9.924,9.923-15.39,23.119-15.39,37.154c0,14.035,5.466,27.231,15.389,37.154c9.924,9.924,23.12,15.391,37.155,15.391 c14.035,0,27.231-5.467,37.154-15.391c9.924-9.923,15.39-23.119,15.39-37.154C412.895,137.784,407.429,124.588,397.505,114.665z M376.001,167.469c-4.181,4.181-9.738,6.484-15.65,6.484c-5.912,0-11.47-2.302-15.65-6.484c-4.181-4.181-6.483-9.738-6.483-15.65 c0-5.912,2.302-11.469,6.483-15.65s9.738-6.484,15.65-6.484c5.912,0,11.469,2.302,15.65,6.484 c4.181,4.181,6.483,9.738,6.483,15.65C382.484,157.731,380.182,163.288,376.001,167.469z"></path></g></g></svg>